<?xml version="1.0" encoding="UTF-8"?>
<svg width="50px" height="50px" viewBox="0 0 50 50" version="1.1" xmlns="http://www.w3.org/2000/svg" xmlns:xlink="http://www.w3.org/1999/xlink">
    <title>Icon/Cargo</title>
    <defs>
        <polygon id="path-1" points="0 0.063631442 23.4374902 0.063631442 23.4374902 36.4624364 0 36.4624364"></polygon>
    </defs>
    <g id="Icon/Cargo" stroke="none" stroke-width="1" fill="none" fill-rule="evenodd">
        <g id="Group-8">
            <g id="Group-3" transform="translate(0.000000, 13.461067)">
                <mask id="mask-2" fill="white">
                    <use xlink:href="#path-1"></use>
                </mask>
                <g id="Clip-2"></g>
                <path d="M23.1386621,9.67225296 L0.677724609,0.102885375 C0.355947266,-0.0342687747 -9.765625e-06,0.20486166 -9.765625e-06,0.558221344 L-9.765625e-06,26.1412253 C-9.765625e-06,26.787668 0.388955078,27.3689921 0.982216797,27.6090119 L22.7678613,36.4266008 C23.0885645,36.5564427 23.4374902,36.3174111 23.4374902,35.9679051 L23.4374902,10.1275889 C23.4374902,9.9287747 23.3197168,9.74942688 23.1386621,9.67225296" id="Fill-1" fill="#000000" mask="url(#mask-2)"></path>
            </g>
            <path d="M25.1894922,20.4146739 L46.8998438,11.1650692 C47.2901758,10.9988636 47.300625,10.4431324 46.9168359,10.2620059 L25.6606836,0.224851779 C25.2418359,0.0271245059 24.7581445,0.0271245059 24.3391992,0.224851779 L3.08304688,10.2620059 C2.69945313,10.4431324 2.70990234,10.9988636 3.10013672,11.1650692 L24.8105859,20.4146739 C24.931582,20.4663538 25.0683984,20.4663538 25.1894922,20.4146739" id="Fill-4" fill="#000000"></path>
            <path d="M26.5625,23.5886462 L26.5625,49.4289625 C26.5625,49.7784684 26.9114258,50.0175 27.2321289,49.8876581 L49.0177734,41.0700692 C49.6109375,40.8299506 50,40.2487253 50,39.6022826 L50,14.0192787 C50,13.665919 49.644043,13.4267885 49.3222656,13.5639427 L26.8613281,23.1333103 C26.6802734,23.2104842 26.5625,23.389832 26.5625,23.5886462" id="Fill-6" fill="#000000"></path>
        </g>
    </g>
</svg>