<?xml version="1.0" encoding="UTF-8"?>
<svg width="50px" height="50px" viewBox="0 0 50 50" version="1.1" xmlns="http://www.w3.org/2000/svg" xmlns:xlink="http://www.w3.org/1999/xlink">
    <title>Icon/Cargo</title>
    <defs>
        <polygon id="path-1" points="5.859375e-05 9.765625e-05 49.9733398 9.765625e-05 49.9733398 49.9999847 5.859375e-05 49.9999847"></polygon>
    </defs>
    <g id="Icon/Cargo" stroke="none" stroke-width="1" fill="none" fill-rule="evenodd">
        <g id="Group-6">
            <g id="Group-3" transform="translate(0.000000, -0.000098)">
                <mask id="mask-2" fill="white">
                    <use xlink:href="#path-1"></use>
                </mask>
                <g id="Clip-2"></g>
                <path d="M37.9682227,47.5149121 L37.9682227,33.9179395 C37.9682227,33.8398145 37.959043,33.7639355 37.9417578,33.6912793 L48.0203711,29.1871777 L48.0203711,43.022627 L37.9682227,47.5149121 Z M25.9631445,29.1872754 L36.0416602,33.691377 C36.0244727,33.7641309 36.0151953,33.8399121 36.0151953,33.9180371 L36.0151953,47.5149121 L25.9631445,43.022627 L25.9631445,29.1872754 Z M13.9316016,33.6912793 L24.0101172,29.1872754 L24.0101172,43.0227246 L13.9580664,47.5150098 L13.9580664,33.9179395 C13.9580664,33.8399121 13.9488867,33.7640332 13.9316016,33.6912793 L13.9316016,33.6912793 Z M1.95298828,29.1872754 L12.0315039,33.691377 C12.0142187,33.7641309 12.0050391,33.8399121 12.0050391,33.9180371 L12.0050391,47.5149121 L1.95298828,43.022627 L1.95298828,29.1872754 Z M12.9816016,23.3858105 L22.593418,27.6812207 L12.9816016,31.9768262 L3.36998047,27.6812207 L12.9816016,23.3858105 Z M24.9866797,2.04616211 L34.5983984,6.34166992 L24.9866797,10.6369824 L15.3750586,6.34157227 L24.9866797,2.04616211 Z M24.9866797,15.5821973 C25.5260352,15.5821973 25.9631445,15.1449902 25.9631445,14.6057324 L25.9631445,12.3398145 L36.0151953,7.84762695 L36.0151953,21.6829785 L25.9631445,26.1752637 L25.9631445,23.4346387 C25.9631445,22.8952832 25.5260352,22.4580762 24.9866797,22.4580762 C24.4474219,22.4580762 24.0102148,22.8952832 24.0102148,23.4346387 L24.0102148,26.1752637 L13.9581641,21.6829785 L13.9581641,7.84762695 L24.0102148,12.3398145 L24.0102148,14.6057324 C24.0101172,15.1450879 24.4474219,15.5821973 24.9866797,15.5821973 L24.9866797,15.5821973 Z M36.9917578,31.9768262 L27.3801367,27.6812207 L36.9917578,23.3858105 L46.6034766,27.6812207 L36.9917578,31.9768262 Z M49.9733984,27.6154004 C49.9733984,27.3058301 49.8066992,27.0200879 49.5369727,26.8677441 L49.5366797,26.8676465 C49.5358984,26.8670605 49.5350195,26.8666699 49.5343359,26.8661816 C49.4845313,26.8332715 49.4316016,26.8046582 49.3758398,26.7813184 L37.968125,21.6831738 L37.968125,6.34147461 C37.968125,6.33405273 37.9680273,6.32672852 37.967832,6.3194043 C37.9677344,6.31696289 37.9677344,6.31461914 37.9676367,6.31217773 C37.9675391,6.30729492 37.9673438,6.30231445 37.9670508,6.29743164 C37.9669531,6.29450195 37.9668555,6.29157227 37.9666602,6.28864258 C37.9663672,6.28239258 37.9660742,6.27604492 37.9655859,6.26979492 C37.965293,6.26540039 37.9649023,6.26110352 37.9644141,6.25680664 C37.9642188,6.25456055 37.9640234,6.2522168 37.9638281,6.2499707 C37.9456641,6.05446289 37.8696875,5.8756543 37.7534766,5.73073242 C37.7517188,5.72868164 37.7501563,5.72663086 37.7483984,5.72458008 C37.7461523,5.72174805 37.7437109,5.71891602 37.7414648,5.71608398 C37.7389258,5.7131543 37.7364844,5.71022461 37.734043,5.70729492 C37.7320898,5.70514648 37.730332,5.70299805 37.7284766,5.70094727 C37.724082,5.69586914 37.7195898,5.69079102 37.715,5.68581055 C37.7141211,5.68483398 37.7133398,5.68385742 37.7122656,5.68288086 C37.7081641,5.67838867 37.7039648,5.67389648 37.6997656,5.66950195 C37.6987891,5.66842773 37.6978125,5.66745117 37.6968359,5.66637695 C37.6921484,5.66149414 37.6873633,5.65661133 37.6825781,5.65182617 L37.6816992,5.65094727 C37.6764258,5.64557617 37.6708594,5.64020508 37.665293,5.63493164 C37.6650977,5.63473633 37.665,5.63463867 37.6649023,5.63444336 C37.6598242,5.6296582 37.6546484,5.62487305 37.6494727,5.62018555 C37.6485938,5.61930664 37.6476172,5.61842773 37.646543,5.61754883 C37.6418555,5.61334961 37.6370703,5.60905273 37.6323828,5.60495117 C37.6316016,5.60426758 37.6307227,5.60348633 37.6298438,5.60280273 C37.6244727,5.59821289 37.6191992,5.59362305 37.6136328,5.58913086 C37.612168,5.58786133 37.6105078,5.5865918 37.609043,5.58541992 C37.6054297,5.58249023 37.6017188,5.57946289 37.5980078,5.5765332 C37.5956641,5.57458008 37.5930273,5.57262695 37.5906836,5.57067383 C37.5877539,5.56852539 37.5850195,5.56637695 37.5822852,5.56422852 C37.5172461,5.5147168 37.4457617,5.47321289 37.3692969,5.44108398 L25.3851172,0.0850292969 C25.1316992,-0.0282519531 24.8417578,-0.0282519531 24.5882422,0.0850292969 L12.6037695,5.44088867 C12.5273047,5.47301758 12.455918,5.51461914 12.3908789,5.5640332 C12.3881445,5.56618164 12.3852148,5.56833008 12.3824805,5.57047852 C12.3800391,5.57243164 12.3775,5.57438477 12.3750586,5.57633789 C12.3713477,5.57926758 12.367832,5.58219727 12.3640234,5.58522461 C12.3624609,5.58649414 12.3608984,5.58766602 12.3595312,5.58893555 C12.3539648,5.59342773 12.3485937,5.59801758 12.3433203,5.60260742 C12.3424414,5.60329102 12.3416602,5.60397461 12.3407812,5.60475586 C12.3359961,5.60885742 12.3313086,5.6131543 12.3265234,5.61735352 C12.3255469,5.61823242 12.3245703,5.61911133 12.3235937,5.61999023 C12.318418,5.62467773 12.3133398,5.62946289 12.3082617,5.63424805 C12.3080664,5.63444336 12.3079687,5.63463867 12.3077734,5.63473633 C12.3023047,5.64000977 12.2968359,5.64538086 12.2913672,5.65075195 C12.2910742,5.65104492 12.2907812,5.65133789 12.2905859,5.65163086 C12.2857031,5.65641602 12.2810156,5.66129883 12.2764258,5.66618164 C12.2753516,5.66725586 12.274375,5.66823242 12.2733008,5.66930664 C12.2691016,5.67370117 12.2649023,5.67819336 12.2608008,5.68268555 C12.2600195,5.68366211 12.2589453,5.68463867 12.2581641,5.68561523 C12.2536719,5.6905957 12.249082,5.69567383 12.2445898,5.70075195 C12.2427344,5.70280273 12.2409766,5.70495117 12.2391211,5.70709961 C12.2366797,5.7100293 12.2341406,5.71295898 12.2316992,5.71588867 C12.2294531,5.7187207 12.2271094,5.72155273 12.224668,5.72438477 C12.2231055,5.72643555 12.2214453,5.72848633 12.2197852,5.73053711 C12.1034766,5.87545898 12.0275,6.05416992 12.0094336,6.24977539 C12.0091406,6.25202148 12.0089453,6.25436523 12.00875,6.25661133 C12.0083594,6.26100586 12.0079687,6.26530273 12.0077734,6.26959961 C12.0072852,6.27584961 12.0067969,6.28219727 12.0065039,6.28844727 C12.0063086,6.29137695 12.0062109,6.29430664 12.0061133,6.29723633 C12.005918,6.30211914 12.0058203,6.30709961 12.005625,6.31198242 C12.0055273,6.31442383 12.0055273,6.31676758 12.0054297,6.31920898 C12.0052344,6.3265332 12.0050391,6.33395508 12.0050391,6.3412793 L12.0050391,21.6828809 L0.597324219,26.7812207 C0.59703125,26.7813184 0.596738281,26.7813184 0.596445312,26.7815137 C0.235800781,26.9327832 5.859375e-05,27.2855176 5.859375e-05,27.6766309 L5.859375e-05,27.6812207 L5.859375e-05,43.6558301 C5.859375e-05,44.041084 0.226328125,44.3902051 0.578085938,44.547334 C0.578085938,44.547334 12.5845312,49.9130566 12.5853125,49.9133496 L12.5908789,49.915791 C12.8381445,50.0275098 13.121543,50.0280957 13.3691992,49.9172559 L13.3800391,49.9122754 L24.9866797,44.7255566 L36.593418,49.9125684 C36.5935156,49.912666 36.608457,49.9182324 36.6326758,49.9274121 C36.8773047,50.0203809 37.149375,50.0153027 37.39,49.9125684 C37.3900977,49.9125684 37.3900977,49.912373 37.3900977,49.912373 L49.3952734,44.547334 C49.7468359,44.3902051 49.9733984,44.041084 49.9733984,43.6558301 L49.9733984,27.6812207 L49.9733984,27.6154004 Z" id="Fill-1" fill="#000000" mask="url(#mask-2)"></path>
            </g>
            <path d="M24.986709,19.978418 C24.5734277,19.978418 24.1945215,19.7075195 24.0619043,19.3157227 C23.9369043,18.946582 24.049209,18.525 24.3427637,18.2679688 C24.6627832,17.987793 25.1407129,17.9498047 25.5019434,18.1732422 C25.8482324,18.3875 26.027334,18.8111328 25.9402246,19.2087891 C25.8430566,19.6522461 25.4413965,19.978418 24.986709,19.978418" id="Fill-4" fill="#000000"></path>
        </g>
    </g>
</svg>