<?xml version="1.0" encoding="UTF-8"?>
<svg width="50px" height="50px" viewBox="0 0 50 50" version="1.1" xmlns="http://www.w3.org/2000/svg" xmlns:xlink="http://www.w3.org/1999/xlink">
    <title>Icon/Clone</title>
    <g id="Icon/Clone" stroke="none" stroke-width="1" fill="none" fill-rule="evenodd">
        <g id="Group-5" fill="#000000">
            <path d="M37.4895816,44.6304393 C37.4895816,45.6164226 36.6902092,46.4156904 35.7043305,46.4156904 L5.35569038,46.4156904 C4.36970711,46.4156904 3.57033473,45.6164226 3.57033473,44.6304393 L3.57033473,14.2816946 C3.57033473,13.2957113 4.36970711,12.4964435 5.35569038,12.4964435 L35.7043305,12.4964435 C36.6902092,12.4964435 37.4895816,13.2957113 37.4895816,14.2816946 L37.4895816,44.6304393 Z M35.7043305,8.92604603 L5.35569038,8.92604603 C2.39774059,8.92604603 4.18410042e-05,11.3238494 4.18410042e-05,14.2816946 L4.18410042e-05,44.6303347 C4.18410042e-05,47.5881799 2.39774059,49.9859833 5.35569038,49.9859833 L35.7043305,49.9859833 C38.6621757,49.9859833 41.0599791,47.5881799 41.0599791,44.6303347 L41.0599791,14.2816946 C41.0599791,11.3238494 38.6621757,8.92604603 35.7043305,8.92604603 L35.7043305,8.92604603 Z" id="Fill-1"></path>
            <path d="M44.6304393,0 L12.4965481,0 C9.53870293,0 7.14089958,2.39780335 7.14089958,5.35564854 C7.14089958,6.3416318 7.94016736,7.14089958 8.92615063,7.14089958 C9.91213389,7.14089958 10.7112971,6.3416318 10.7112971,5.35564854 C10.7112971,4.36966527 11.5105649,3.57039749 12.4965481,3.57039749 L44.6304393,3.57039749 C45.6164226,3.57039749 46.4156904,4.36966527 46.4156904,5.35564854 L46.4156904,37.4895397 C46.4156904,38.475523 45.6164226,39.2747908 44.6304393,39.2747908 C43.6444561,39.2747908 42.8451883,40.0740586 42.8451883,41.0600418 C42.8451883,42.0460251 43.6444561,42.8452929 44.6304393,42.8452929 C47.5882845,42.8452929 49.9860879,40.4474895 49.9860879,37.4896444 L49.9860879,5.35564854 C49.9860879,2.39780335 47.5882845,0 44.6304393,0" id="Fill-3"></path>
        </g>
        <path d="M20,19.75 C20.4142136,19.75 20.7892136,19.9178932 21.0606602,20.1893398 C21.3321068,20.4607864 21.5,20.8357864 21.5,21.25 L21.5,21.25 L21.5,28.4990333 L28.75,28.5 C29.1642136,28.5 29.5392136,28.6678932 29.8106602,28.9393398 C30.0821068,29.2107864 30.25,29.5857864 30.25,30 C30.25,30.4142136 30.0821068,30.7892136 29.8106602,31.0606602 C29.5392136,31.3321068 29.1642136,31.5 28.7499667,31.5 L28.7499667,31.5 L21.5,31.4990333 L21.5,38.75 C21.5,39.1642136 21.3321068,39.5392136 21.0606602,39.8106602 C20.7892136,40.0821068 20.4142136,40.25 20,40.25 C19.5857864,40.25 19.2107864,40.0821068 18.9393398,39.8106602 C18.6678932,39.5392136 18.5,39.1642136 18.5,38.75 L18.5,38.75 L18.5,31.4990333 L11.25,31.5 C10.8357864,31.5 10.4607864,31.3321068 10.1893398,31.0606602 C9.91789322,30.7892136 9.75,30.4142136 9.75,30 C9.75,29.5857864 9.91789322,29.2107864 10.1893398,28.9393398 C10.4607864,28.6678932 10.8357864,28.5 11.2499667,28.5 L11.2499667,28.5 L18.5,28.4990333 L18.5,21.25 C18.5,20.8357864 18.6678932,20.4607864 18.9393398,20.1893398 C19.2107864,19.9178932 19.5857864,19.75 20,19.75 Z" id="Combined-Shape" stroke="#000000" stroke-width="0.5" fill="#000000" stroke-linejoin="round"></path>
    </g>
</svg>