<?xml version="1.0" encoding="UTF-8"?>
<svg width="50px" height="50px" viewBox="0 0 50 50" version="1.1" xmlns="http://www.w3.org/2000/svg" xmlns:xlink="http://www.w3.org/1999/xlink">
    <title>Icon/Container</title>
    <defs>
        <polygon id="path-1" points="3.90625e-05 0.0287402344 50 0.0287402344 50 26.171875 3.90625e-05 26.171875"></polygon>
    </defs>
    <g id="Icon/Container" stroke="none" stroke-width="1" fill="none" fill-rule="evenodd">
        <g id="Group-14">
            <path d="M21.4742676,19.5765918 C20.7583496,18.9011035 20.2404785,18.0210254 20.0175293,17.0315723 L11.1189941,20.8548145 L18.4990723,20.8548145 L21.4742676,19.5765918 Z" id="Fill-1" fill="#000000"></path>
            <path d="M28.4661328,19.5684863 L31.476582,20.8549121 L38.8906445,20.8549121 L29.9168164,17.0201465 C29.6962109,18.0102832 29.1803906,18.8915332 28.4661328,19.5684863" id="Fill-3" fill="#000000"></path>
            <path d="M16.4115918,6.05664062 L33.3886426,6.05664062 C33.7588574,6.05664062 34.0589551,5.75644531 34.0589551,5.38632813 L34.0589551,0 L15.772334,0 L15.772334,5.41738281 C15.772334,5.77041016 16.0585645,6.05664062 16.4115918,6.05664062" id="Fill-5" fill="#000000"></path>
            <path d="M22.8229492,15.9334668 L22.8229492,15.9334668 C22.8229492,17.1019238 23.784375,18.0525098 24.965918,18.0525098 C26.1476563,18.0525098 27.109082,17.1019238 27.109082,15.9334668 C27.109082,14.7650098 26.1476563,13.8144238 24.965918,13.8144238 C23.784375,13.8144238 22.8229492,14.7650098 22.8229492,15.9334668" id="Fill-7" fill="#000000"></path>
            <path d="M26.4295605,8.96753906 L23.5023145,8.96753906 L23.5023145,11.1180273 C23.9659863,10.9790625 24.4571973,10.9035742 24.9659863,10.9035742 C25.4747754,10.9035742 25.9658887,10.9790625 26.4295605,11.118125 L26.4295605,8.96753906 Z" id="Fill-9" fill="#000000"></path>
            <g id="Group-13" transform="translate(0.000000, 23.737012)">
                <mask id="mask-2" fill="white">
                    <use xlink:href="#path-1"></use>
                </mask>
                <g id="Clip-12"></g>
                <path d="M42.5397852,18.7034473 C42.5397852,19.5072559 41.8844141,20.1588184 41.0761133,20.1588184 C40.2677148,20.1588184 39.6124414,19.5072559 39.6124414,18.7034473 L39.6124414,7.3328418 C39.6124414,6.5290332 40.2677148,5.87737305 41.0761133,5.87737305 C41.8844141,5.87737305 42.5397852,6.5290332 42.5397852,7.3328418 L42.5397852,18.7034473 Z M34.5121484,18.7948535 C34.5121484,19.5985645 33.8567773,20.2502246 33.0484766,20.2502246 C32.2400781,20.2502246 31.584707,19.5985645 31.584707,18.7948535 L31.584707,7.4243457 C31.584707,6.62053711 32.2400781,5.96887695 33.0484766,5.96887695 C33.8567773,5.96887695 34.5121484,6.62053711 34.5121484,7.4243457 L34.5121484,18.7948535 Z M26.4845117,18.6357715 C26.4845117,19.4395801 25.8291406,20.0911426 25.0207422,20.0911426 C24.2124414,20.0911426 23.557168,19.4395801 23.557168,18.6357715 L23.557168,7.26526367 C23.557168,6.46145508 24.2124414,5.80979492 25.0207422,5.80979492 C25.8291406,5.80979492 26.4845117,6.46145508 26.4845117,7.26526367 L26.4845117,18.6357715 Z M18.4567773,18.874248 C18.4567773,19.6780566 17.8015039,20.3297168 16.9931055,20.3297168 C16.1848047,20.3297168 15.5295312,19.6780566 15.5295312,18.874248 L15.5295312,7.50383789 C15.5295312,6.7000293 16.1848047,6.04836914 16.9931055,6.04836914 C17.8015039,6.04836914 18.4567773,6.7000293 18.4567773,7.50383789 L18.4567773,18.874248 Z M10.4292383,18.9137012 C10.4292383,19.7176074 9.77396484,20.3691699 8.96556641,20.3691699 C8.15726563,20.3691699 7.50189453,19.7176074 7.50189453,18.9137012 L7.50189453,7.54329102 C7.50189453,6.73938477 8.15726563,6.08772461 8.96556641,6.08772461 C9.77396484,6.08772461 10.4292383,6.73938477 10.4292383,7.54329102 L10.4292383,18.9137012 Z M48.7238672,0.0287402344 L1.27611328,0.0287402344 C0.558828125,0.104716797 3.90625e-05,0.708037109 3.90625e-05,1.44133789 L3.90625e-05,24.7509082 C3.90625e-05,25.5356738 0.639785156,26.1719043 1.42904297,26.1719043 L48.5709375,26.1719043 C49.3600977,26.1719043 50.0000391,25.5356738 50.0000391,24.7509082 L50.0000391,1.44133789 C50.0000391,0.708037109 49.4411523,0.104716797 48.7238672,0.0287402344 L48.7238672,0.0287402344 Z" id="Fill-11" fill="#000000" mask="url(#mask-2)"></path>
            </g>
        </g>
    </g>
</svg>