<?xml version="1.0" encoding="UTF-8"?>
<svg width="50px" height="50px" viewBox="0 0 50 50" version="1.1" xmlns="http://www.w3.org/2000/svg" xmlns:xlink="http://www.w3.org/1999/xlink">
    <title>Icon/Flag</title>
    <g id="Icon/Flag" stroke="none" stroke-width="1" fill="none" fill-rule="evenodd">
        <g id="006-flag" transform="translate(9.000000, 0.000000)" fill="#000000" fill-rule="nonzero">
            <path d="M22.8214499,17.307632 L31.0263096,8.24171484 C31.2469017,8.00655881 31.310656,7.66255371 31.1892836,7.36261408 C31.0471104,7.06688118 30.7536117,6.87610612 30.4285998,6.86811333 L4.0752849,6.86811333 C4.0752849,6.86811333 3.74923299,6.86811333 3.74923299,6.92301112 L3.74923299,5.93400962 C5.14215588,5.70958074 6.13362411,4.44451278 6.03138838,3.02190291 C6.03170039,1.37423314 4.7265567,0.0299735496 3.09723317,0 C1.42828419,-0.00105106143 0.0585541395,1.33532091 0,3.02200807 C0.0557460369,4.33787226 0.893288639,5.48883274 2.11907743,5.93411479 L2.11907743,49.175797 C2.11907743,49.6309649 2.48402676,50 2.93415521,50 C3.38428366,50 3.74923299,49.6309649 3.74923299,49.175797 L3.74923299,27.7472559 L30.4284958,27.7472559 C30.761932,27.7692361 31.0706153,27.5686804 31.1891796,27.2527552 C31.2973435,26.9515535 31.2348373,26.6146999 31.0262056,26.3736544 L22.8214499,17.307632 Z" id="Path"></path>
        </g>
    </g>
</svg>