<?xml version="1.0" encoding="UTF-8"?>
<svg width="50px" height="50px" viewBox="0 0 50 50" version="1.1" xmlns="http://www.w3.org/2000/svg" xmlns:xlink="http://www.w3.org/1999/xlink">
    <title>Icon/Info</title>
    <g id="Icon/Info" stroke="none" stroke-width="1" fill="none" fill-rule="evenodd">
        <g id="002-info" fill="#000000" fill-rule="nonzero">
            <path d="M42.6777344,7.32226562 C37.9557617,2.60048828 31.6777344,0 25,0 C18.3222656,0 12.0442383,2.60048828 7.32226562,7.32226562 C2.60048828,12.0442383 0,18.3222656 0,25 C0,31.6777344 2.60048828,37.9557617 7.32226562,42.6777344 C12.0442383,47.3995117 18.3222656,50 25,50 C31.6777344,50 37.9557617,47.3995117 42.6777344,42.6777344 C47.3995117,37.9557617 50,31.6777344 50,25 C50,18.3222656 47.3995117,12.0442383 42.6777344,7.32226562 Z M25,6.8359375 C27.9616211,6.8359375 30.3710938,9.24541016 30.3710938,12.2070312 C30.3710938,15.1686523 27.9616211,17.578125 25,17.578125 C22.0383789,17.578125 19.6289062,15.1686523 19.6289062,12.2070312 C19.6289062,9.24541016 22.0383789,6.8359375 25,6.8359375 Z M31.8359375,41.015625 L18.1640625,41.015625 L18.1640625,38.0859375 L21.09375,38.0859375 L21.09375,23.4375 L18.1640625,23.4375 L18.1640625,20.5078125 L28.90625,20.5078125 L28.90625,38.0859375 L31.8359375,38.0859375 L31.8359375,41.015625 Z" id="Shape"></path>
        </g>
    </g>
</svg>