<?xml version="1.0" encoding="UTF-8"?>
<svg width="50px" height="50px" viewBox="0 0 50 50" version="1.1" xmlns="http://www.w3.org/2000/svg" xmlns:xlink="http://www.w3.org/1999/xlink">
    <title>Icon/Location</title>
    <g id="Icon/Location" stroke="none" stroke-width="1" fill="none" fill-rule="evenodd">
        <g id="001-pin" transform="translate(6.000000, 0.000000)" fill="#000000" fill-rule="nonzero">
            <path d="M19,0 C8.52278646,0 0,8.41162109 0,18.75 C0,32.5826172 17.5300729,49.0234375 18.2764167,49.7171875 C18.4804688,49.9053711 18.7402344,50 19,50 C19.2597656,50 19.5195312,49.9053711 19.7236823,49.7171875 C20.4699271,49.0234375 38,32.5826172 38,18.75 C38,8.41162109 29.4772135,0 19,0 Z M19,29.1666992 C13.1799635,29.1666992 8.44441146,24.493457 8.44441146,18.75 C8.44441146,13.006543 13.1800625,8.33330078 19,8.33330078 C24.8199375,8.33330078 29.5555885,13.0066406 29.5555885,18.75 C29.5555885,24.4933594 24.8200365,29.1666992 19,29.1666992 Z" id="Shape"></path>
        </g>
    </g>
</svg>