<?xml version="1.0" encoding="UTF-8"?>
<svg width="50px" height="50px" viewBox="0 0 50 50" version="1.1" xmlns="http://www.w3.org/2000/svg" xmlns:xlink="http://www.w3.org/1999/xlink">
    <title>Icon/More</title>
    <g id="Icon/More" stroke="none" stroke-width="1" fill="none" fill-rule="evenodd">
        <path d="M5.76923077,19 C8.95548894,19 11.5384615,21.5829726 11.5384615,24.7692308 C11.5384615,27.9554889 8.95548894,30.5384615 5.76923077,30.5384615 C2.5829726,30.5384615 0,27.9554889 0,24.7692308 C0,21.5829726 2.5829726,19 5.76923077,19 Z M25,19 C28.1862582,19 30.7692308,21.5829726 30.7692308,24.7692308 C30.7692308,27.9554889 28.1862582,30.5384615 25,30.5384615 C21.8137418,30.5384615 19.2307692,27.9554889 19.2307692,24.7692308 C19.2307692,21.5829726 21.8137418,19 25,19 Z M44.2307692,19 C47.4170274,19 50,21.5829726 50,24.7692308 C50,27.9554889 47.4170274,30.5384615 44.2307692,30.5384615 C41.0445111,30.5384615 38.4615385,27.9554889 38.4615385,24.7692308 C38.4615385,21.5829726 41.0445111,19 44.2307692,19 Z" id="Combined-Shape" fill="#979797"></path>
    </g>
</svg>