<?xml version="1.0" encoding="UTF-8"?>
<svg width="50px" height="50px" viewBox="0 0 50 50" version="1.1" xmlns="http://www.w3.org/2000/svg" xmlns:xlink="http://www.w3.org/1999/xlink">
    <title>Icon/Share</title>
    <g id="Icon/Share" stroke="none" stroke-width="1" fill="none" fill-rule="evenodd">
        <path d="M38.2,50 C33.34768,50 29.4,46.0572266 29.4,41.2109375 C29.4,41.0579102 29.4060622,40.9082031 29.4166222,40.7626953 L18.6304622,33.7072266 C17.0024622,34.722168 15.1675644,35.2539062 13.2666667,35.2539062 C7.60562667,35.2539062 3,30.6540039 3,25 C3,19.3459961 7.60562667,14.7460938 13.2666667,14.7460938 C15.1675644,14.7460938 17.0024622,15.277832 18.6304622,16.2928711 L29.4166222,9.23730469 C29.40616,9.09179687 29.4,8.94208984 29.4,8.7890625 C29.4,3.94277344 33.34768,0 38.2,0 C43.05232,0 47,3.94277344 47,8.7890625 C47,13.6353516 43.05232,17.578125 38.2,17.578125 C36.80168,17.578125 35.4366044,17.247168 34.2004978,16.6139648 L23.4328178,23.6579102 C23.5001867,24.1202148 23.5333333,24.5646484 23.5333333,25 C23.5333333,25.4353516 23.5001867,25.8797852 23.4328178,26.3420898 L34.2004978,33.3860352 C35.4366044,32.752832 36.80168,32.421875 38.2,32.421875 C43.05232,32.421875 47,36.3646484 47,41.2109375 C47,46.0572266 43.05232,50 38.2,50" id="Fill-1" fill="#000000"></path>
    </g>
</svg>