<svg xmlns="http://www.w3.org/2000/svg" width="32" height="32" viewBox="0 0 32 32">
    <g fill="none" fill-rule="evenodd">
        <g fill="#000" fill-rule="nonzero">
            <g>
                <g>
                    <path d="M31.079 9.678c-.412-.412-.936-.645-1.475-.698.044-.184.067-.375.067-.57 0-.649-.252-1.258-.709-1.715-.406-.407-.922-.638-1.454-.696.203-.801-.01-1.687-.635-2.314-.627-.626-1.513-.838-2.315-.635-.057-.531-.289-1.048-.695-1.454-.457-.457-1.066-.709-1.716-.709-.65 0-1.259.252-1.716.709l-.601.601c-1.965-.617-4.067-.831-6.12-.624-.572-.505-1.228-.95-1.965-1.252-2.114-.864-3.081.249-3.327.61-.45.662-.486 1.538-.143 2.25-.528.273-1.042.577-1.534.909-.285.193-.36.58-.167.866.12.178.317.275.517.275.12 0 .242-.035.349-.107.517-.35 1.061-.665 1.622-.942.943 1.081 2.364 3.081 2.001 5.002-.248 1.314-.194 2.583-.133 3.811-.08-.01-.161-.016-.243-.016-.513 0-.994.199-1.354.56L1.93 20.942c-1.254-3.964-.72-8.41 1.726-12.034.193-.285.118-.673-.167-.866-.286-.192-.674-.117-.866.168-4.067 6.022-3.283 14.127 1.862 19.272 2.875 2.876 6.698 4.46 10.765 4.46 4.066 0 7.89-1.584 10.765-4.46 3.552-3.552 5.112-8.583 4.208-13.516l.856-.856c.946-.947.946-2.486 0-3.432zM18.822 3.205l-2.278 2.278-.018-.041c-.102-.225-.676-1.452-1.692-2.693 1.342-.038 2.692.116 3.988.456zm-8.607 11.216c.125-.125.292-.194.472-.194.179 0 .346.069.471.194l7.95 7.95h.001c.26.26.26.684 0 .944l-2.363 2.362-8.894-8.894 2.363-2.362zm-7.807 7.807l4.562-4.562 8.894 8.894-3.776 3.776c-2.525-.581-4.844-1.858-6.721-3.736-1.287-1.287-2.276-2.775-2.96-4.372zM25.132 26.6c-2.64 2.64-6.15 4.094-9.882 4.094-.559 0-1.112-.033-1.658-.098l6.4-6.399c.583-.583.71-1.453.381-2.161.555-.435 1.235-.773 1.947-1.127.937-.465 1.905-.946 2.656-1.697l4.15-4.15c.507 4.244-.942 8.486-3.994 11.538zm5.064-14.373l-6.102 6.103c-.606.606-1.443 1.022-2.329 1.462-.752.374-1.524.758-2.188 1.283l-7.364-7.364c-.01-.225-.02-.448-.032-.665-.062-1.245-.12-2.421.108-3.63.525-2.784-1.726-5.491-2.718-6.525-.32-.334-.374-.887-.121-1.258.305-.449.97-.506 1.823-.157 2.544 1.04 4.052 4.338 4.115 4.478.231.513.423.726.79.875.042.017.063.025.087.04.245.142.555.102.756-.098l4.292-4.293c.222-.221.518-.343.834-.343.316 0 .613.122.834.343.46.46.46 1.208 0 1.668-.244.243-.244.638 0 .882.244.243.638.243.882 0l.46-.46c.46-.46 1.208-.46 1.667 0 .46.46.46 1.207 0 1.667l-.46.46c-.243.244-.243.639 0 .882.244.244.639.244.883 0 .46-.46 1.207-.46 1.667 0 .221.222.343.518.343.834 0 .316-.122.612-.343.834l-.433.433c-.244.243-.244.638 0 .882s.638.244.882 0l.002-.002c.22-.22.516-.341.832-.341.316 0 .612.122.833.343.222.221.344.517.344.834 0 .316-.122.612-.344.833z" transform="translate(-857 -810) translate(668 770) translate(189 40)"/>
                    <path d="M10.173 17.151c.12.109.27.162.42.162.17 0 .338-.069.461-.204.232-.255.213-.65-.042-.881-.254-.232-.649-.213-.88.042h-.001c-.232.255-.213.65.042.881zM4.926 7.017c.344 0 .624-.279.624-.623 0-.345-.28-.624-.624-.624-.345 0-.624.28-.624.624s.28.623.624.623z" transform="translate(-857 -810) translate(668 770) translate(189 40)"/>
                </g>
            </g>
        </g>
    </g>
</svg>
