<?xml version="1.0" encoding="UTF-8"?>
<svg width="50px" height="50px" viewBox="0 0 50 50" version="1.1" xmlns="http://www.w3.org/2000/svg" xmlns:xlink="http://www.w3.org/1999/xlink">
    <title>Icon/Truck</title>
    <defs>
        <polygon id="path-1" points="0.0547478261 0.0447411765 7.89474783 0.0447411765 7.89474783 8 0.0547478261 8"></polygon>
        <polygon id="path-3" points="0.0358 0.0447411765 7.99121176 0.0447411765 7.99121176 8 0.0358 8"></polygon>
    </defs>
    <g id="Icon/Truck" stroke="none" stroke-width="1" fill="none" fill-rule="evenodd">
        <path d="M0,34.1348689 C0,34.6195902 0.354285714,35 0.859861004,35 L2.23271815,35 C3.15517761,33.0491803 5.25539768,31.5729836 7.69398456,31.5729836 C10.1326911,31.5729836 12.2324324,33.0491803 13.1553707,35 L31,35 L31,28 L0,28 L0,34.1348689 Z" id="Fill-1" fill="#000000"></path>
        <g id="Group-5" transform="translate(4.000000, 34.000000)">
            <mask id="mask-2" fill="white">
                <use xlink:href="#path-1"></use>
            </mask>
            <g id="Clip-4"></g>
            <path d="M3.97474783,0.0447411765 C1.80976232,0.0447411765 0.0547478261,1.82556471 0.0547478261,4.02238824 C0.0547478261,6.21909412 1.80976232,8.00003529 3.97474783,8.00003529 C6.13868986,7.99756471 7.89231304,6.21815294 7.89474783,4.02238824 C7.89474783,1.82568235 6.13973333,0.0447411765 3.97474783,0.0447411765" id="Fill-3" fill="#000000" mask="url(#mask-2)"></path>
        </g>
        <path d="M49.45345,24.698343 L45.4580907,23 L33,23 L33,35 L35.4182601,35 C36.3751907,32.9600204 38.5518606,31.4162358 41.0799344,31.4162358 C43.6080082,31.4162358 45.7852985,32.9600204 46.7416087,35 L49.108126,35 C49.63213,35 49.9994166,34.602084 49.9994166,34.095329 L49.9994166,25.5712143 C50.0126935,25.201258 49.7984016,24.8587814 49.45345,24.698343" id="Fill-6" fill="#000000"></path>
        <path d="M41.3253107,15.6004393 C40.8282292,14.6016968 39.8356745,13.9824895 38.7608503,14.0003774 L33,14.0003774 L33,21 L44,21 L41.3253107,15.6004393 Z" id="Fill-8" fill="#000000"></path>
        <path d="M28.251222,8 L2.73420544,8 C1.19510774,8 0,9.2962449 0,10.8708163 L0,26 L31,26 L31,10.8708163 C31,10.8664082 31,10.862 31,10.8575918 C31.0121184,9.29208163 29.7815823,8.01261224 28.251222,8" id="Fill-10" fill="#000000"></path>
        <g id="Group-14" transform="translate(37.000000, 34.000000)">
            <mask id="mask-4" fill="white">
                <use xlink:href="#path-3"></use>
            </mask>
            <g id="Clip-13"></g>
            <path d="M4.01344706,0.0447411765 C1.81662353,0.0448588235 0.0356823529,1.82568235 0.0358,4.02250588 C0.0359176471,6.21921176 1.81685882,8.00015294 4.01368235,8.00003529 C6.20944706,7.99756471 7.98874118,6.21815294 7.99121176,4.02238824 L7.99121176,4.02227059 C7.99109412,1.82556471 6.21027059,0.0447411765 4.01344706,0.0447411765" id="Fill-12" fill="#000000" mask="url(#mask-4)"></path>
        </g>
    </g>
</svg>