<?xml version="1.0" encoding="UTF-8"?>
<svg width="50px" height="50px" viewBox="0 0 50 50" version="1.1" xmlns="http://www.w3.org/2000/svg" xmlns:xlink="http://www.w3.org/1999/xlink">
    <title>Icon/Add/Red</title>
    <g id="Icon/Add/Red" stroke="none" stroke-width="1" fill="none" fill-rule="evenodd">
        <path d="M24.6464466,14.1464466 C25.1380712,14 25.2630712,14.0559644 25.3535534,14.1464466 C25.4440356,14.2369288 25.5,14.3619288 25.5,14.5 L25.5,14.5 L25.5,24.5 L35.5,24.5 C35.6380712,24.5 35.7630712,24.5559644 35.8535534,24.6464466 C35.9440356,24.7369288 36,24.8619288 36,25 C36,25.1380712 35.9440356,25.2630712 35.8535534,25.3535534 C35.7630712,25.4440356 35.6380712,25.5 35.5,25.5 L35.5,25.5 L25.5,25.5 L25.5,35.5 C25.5,35.6380712 25.4440356,35.7630712 25.3535534,35.8535534 C25.2630712,35.9440356 25.1380712,36 25,36 C24.8619288,36 24.7369288,35.9440356 24.6464466,35.8535534 C24.5559644,35.7630712 24.5,35.6380712 24.5,35.5 L24.5,35.5 L24.5,25.5 L14.5,25.5 C14.3619288,25.5 14.2369288,25.4440356 14.1464466,25.3535534 C14.0559644,25.2630712 14,25.1380712 14,25 C14,24.8619288 14.0559644,24.7369288 14.1464466,24.6464466 C14.2369288,24.5559644 14.3619288,24.5 14.5,24.5 L14.5,24.5 L24.5,24.5 L24.5,14.5 C24.5,14.3619288 24.5559644,14.2369288 24.6464466,14.1464466 Z" id="Combined-Shape" stroke="#FF0000" stroke-width="2" fill="#FF0000"></path>
        <rect id="Rectangle-Copy-16" stroke="#FF0000" stroke-width="3" x="1.5" y="1.5" width="47" height="47" rx="23.5"></rect>
    </g>
</svg>