<?xml version="1.0" encoding="UTF-8"?>
<svg width="50px" height="50px" viewBox="0 0 50 50" version="1.1" xmlns="http://www.w3.org/2000/svg" xmlns:xlink="http://www.w3.org/1999/xlink">
    <title>Icon/Container</title>
    <g id="Icon/Container" stroke="none" stroke-width="1" fill="none" fill-rule="evenodd">
        <g id="Group-9" transform="translate(0.000000, 10.000000)" fill="#000000">
            <path d="M12.3574687,-1.04166667e-05 L12.1300729,0.113322917 L0.463302083,5.94665625 L-3.125e-05,6.17832292 L-3.125e-05,24.7424896 L0.505072917,24.9591563 L6.18746875,27.3941563 L12.3749688,30.0458229 L49.9999688,25.7708229 L49.9999688,5.13248958 L12.6124687,0.03415625 L12.3574687,-1.04166667e-05 Z M13.3333021,1.81415625 L48.3334063,6.58748958 L48.3334063,24.2824896 L13.3333021,28.2599896 L13.3333021,1.81415625 Z M6.66663542,25.7866563 L6.66663542,4.70832292 L11.6666354,2.20832292 L11.6666354,27.9292604 L6.66663542,25.7866563 Z M1.66663542,23.6441563 L1.66663542,7.20832292 L4.99996875,5.54165625 L4.99996875,25.0724896 L1.66663542,23.6441563 Z" id="Fill-1"></path>
            <g id="Group-8" transform="translate(2.500000, 4.108333)">
                <path d="M0.833333333,7.58501042 C0.373125,7.58501042 0,7.95813542 0,8.41834375 L0,14.2516771 C0,14.7118854 0.373125,15.0850104 0.833333333,15.0850104 C1.29354167,15.0850104 1.66666667,14.7118854 1.66666667,14.2516771 L1.66666667,8.41834375 C1.66666667,7.95813542 1.29354167,7.58501042 0.833333333,7.58501042" id="Fill-2"></path>
                <path d="M6.66666667,7.58501042 C6.20645833,7.58501042 5.83333333,7.95813542 5.83333333,8.41834375 L5.83333333,15.0850104 C5.83333333,15.5452188 6.20645833,15.9183437 6.66666667,15.9183437 C7.126875,15.9183437 7.5,15.5452188 7.5,15.0850104 L7.5,8.41834375 C7.5,7.95813542 7.126875,7.58501042 6.66666667,7.58501042" id="Fill-4"></path>
                <path d="M42.5,17.6516458 L39.1666667,17.9291458 L39.1666667,4.62747917 L42.5,4.9983125 L42.5,17.6516458 Z M37.5,18.0683125 L34.1666667,18.3458125 L34.1666667,4.0683125 L37.5,4.43914583 L37.5,18.0683125 Z M32.5,18.4849792 L29.1666667,18.7624792 L29.1666667,3.51247917 L32.5,3.8833125 L32.5,18.4849792 Z M27.5,18.9016458 L24.1666667,19.1791458 L24.1666667,2.9608125 L27.5,3.3308125 L27.5,18.9016458 Z M22.5,19.3183125 L19.1666667,19.5958125 L19.1666667,2.40497917 L22.5,2.77497917 L22.5,19.3183125 Z M17.5,19.7349792 L14.1666667,20.0124792 L14.1666667,1.84914583 L17.5,2.21997917 L17.5,19.7349792 Z M43.425,3.4233125 L13.425,0.0899791667 C12.9676042,0.0393541667 12.5557292,0.369145833 12.5051042,0.826541667 C12.5017708,0.856958333 12.5,0.887583333 12.5,0.9183125 L12.5,20.9183125 C12.5,21.1515417 12.5976042,21.3738333 12.7691667,21.5316458 C12.9230208,21.6731042 13.124375,21.7516458 13.3333333,21.7516458 C13.3563542,21.7528958 13.3794792,21.7528958 13.4025,21.7516458 L43.4025,19.2516458 C43.8355208,19.2157083 44.168125,18.8527917 44.1666714,18.4183125 L44.1666714,4.25164583 C44.1666714,3.82685417 43.8471875,3.47008333 43.425,3.4233125 L43.425,3.4233125 Z" id="Fill-6"></path>
            </g>
        </g>
    </g>
</svg>