<?xml version="1.0" encoding="UTF-8"?>
<svg width="50px" height="50px" viewBox="0 0 50 50" version="1.1" xmlns="http://www.w3.org/2000/svg" xmlns:xlink="http://www.w3.org/1999/xlink">
    <title>Icon/Filter</title>
    <defs>
        <polygon id="path-1" points="0 0 50.8941352 0 50.8941352 49.9739364 0 49.9739364"></polygon>
    </defs>
    <g id="Icon/Filter" stroke="none" stroke-width="1" fill="none" fill-rule="evenodd">
        <g id="Group-3">
            <mask id="mask-2" fill="white">
                <use xlink:href="#path-1"></use>
            </mask>
            <g id="Clip-2"></g>
            <path d="M29.2828131,26.8893439 C29.0546819,27.2194632 28.9323161,27.6107157 28.9323161,28.0118091 L28.9323161,46.0288072 L21.9622366,46.0288072 L21.9622366,28.0117097 C21.9622366,27.6106163 21.8399702,27.2193638 21.6117396,26.8892445 L5.73649105,3.94530815 L45.1587575,3.94530815 L29.2828131,26.8893439 Z M50.6690954,1.05664016 C50.3291352,0.40693837 49.6551789,-1.98807157e-05 48.9219781,-1.98807157e-05 L1.97267396,-1.98807157e-05 C1.23887674,-1.98807157e-05 0.566212724,0.406341948 0.22555666,1.05664016 C-0.115099404,1.70693837 -0.0670874751,2.49202783 0.350506958,3.09500994 L18.017008,28.6271173 L18.017008,48.0013718 C18.017008,49.0909344 18.9001093,49.9739364 19.989672,49.9739364 L30.9050795,49.9739364 C31.9946421,49.9739364 32.8777435,49.0909344 32.8777435,48.0013718 L32.8777435,28.6272167 L50.5441451,3.09510934 C50.9610437,2.49143141 51.0090557,1.70634195 50.6690954,1.05664016 L50.6690954,1.05664016 Z" id="Fill-1" fill="#000000" mask="url(#mask-2)"></path>
        </g>
    </g>
</svg>