<?xml version="1.0" encoding="UTF-8"?>
<svg width="50px" height="50px" viewBox="0 0 50 50" version="1.1" xmlns="http://www.w3.org/2000/svg" xmlns:xlink="http://www.w3.org/1999/xlink">
    <title>Icon/Notification/New</title>
    <defs>
        <polygon id="path-1" points="9.14634146e-06 1.37195122e-05 27.9878049 1.37195122e-05 27.9878049 29.9869665 9.14634146e-06 29.9869665"></polygon>
    </defs>
    <g id="Icon/Notification/New" stroke="none" stroke-width="1" fill="none" fill-rule="evenodd">
        <g id="Group-3" transform="translate(25.000000, 25.000000) rotate(3.000000) translate(-25.000000, -25.000000) translate(11.000000, 10.000000)">
            <mask id="mask-2" fill="white">
                <use xlink:href="#path-1"></use>
            </mask>
            <g id="Clip-2"></g>
            <path d="M2.99872866,23.9895869 L5.99740244,17.9921479 L5.99740244,9.99563872 C5.99740244,5.57960213 9.57782927,1.9991753 13.9939116,1.9991753 C18.4099482,1.9991753 21.9904207,5.57960213 21.9904207,9.99563872 L21.9904207,17.9921479 L24.9890945,23.9895869 L2.99872866,23.9895869 L2.99872866,23.9895869 Z M13.9939116,27.9878186 C12.6904665,27.9878186 11.5919909,27.1512027 11.179125,25.9887027 L16.8096585,25.9887027 C16.395878,27.1512027 15.2973567,27.9878186 13.9939116,27.9878186 L13.9939116,27.9878186 Z M23.9895823,17.9921479 L23.9895823,9.99563872 C23.9895823,4.47504421 19.5145061,1.37195122e-05 13.9939116,1.37195122e-05 C8.47331707,1.37195122e-05 3.99828659,4.47504421 3.99828659,9.99563872 L3.99828659,17.9921479 L9.14634146e-06,25.9887027 L9.09705183,25.9887027 C9.55985671,28.2697088 11.5759848,29.9869802 13.9939116,29.9869802 C16.4117927,29.9869802 18.4279665,28.2697088 18.8907256,25.9887027 L27.987814,25.9887027 L23.9895823,17.9921479 Z" id="Fill-1" fill="#000000" mask="url(#mask-2)"></path>
        </g>
        <circle id="Oval" fill="#FF0000" cx="37.5" cy="12.5" r="12.5"></circle>
        <text id="2" font-family="Euclid Circular B-Bold, Euclid Circular B" font-size="14" font-weight="bold" fill="#FFFFFF">
            <tspan x="33" y="17">2</tspan>
        </text>
    </g>
</svg>