<?xml version="1.0" encoding="UTF-8"?>
<svg width="50px" height="50px" viewBox="0 0 50 50" version="1.1" xmlns="http://www.w3.org/2000/svg" xmlns:xlink="http://www.w3.org/1999/xlink">
    <title>Icon/Ocean</title>
    <defs>
        <polygon id="path-1" points="0 1.953125e-05 49.9992973 1.953125e-05 49.9992973 15.625 0 15.625"></polygon>
    </defs>
    <g id="Icon/Ocean" stroke="none" stroke-width="1" fill="none" fill-rule="evenodd">
        <g id="Group-12" transform="translate(0.000000, 7.000000)">
            <g id="Group-3" transform="translate(0.000000, 20.833301)">
                <mask id="mask-2" fill="white">
                    <use xlink:href="#path-1"></use>
                </mask>
                <g id="Clip-2"></g>
                <path d="M49.7664063,0.739570312 C49.480957,0.281269531 48.9790039,1.953125e-05 48.4373047,1.953125e-05 L34.8956055,1.953125e-05 C34.0331055,1.953125e-05 33.3331055,0.700019531 33.3331055,1.56251953 C33.3331055,4.14787109 31.230957,6.25001953 28.6456055,6.25001953 L1.56230469,6.25001953 C0.987207031,6.25001953 0.456054688,6.56662109 0.18515625,7.07501953 C-0.0876953125,7.58332031 -0.0565429688,8.20001953 0.262304687,8.67921875 L4.42890625,14.9292187 C4.71845703,15.3645703 5.20605469,15.6250195 5.72890625,15.6250195 L42.1873047,15.6250195 C42.7789062,15.6250195 43.3206055,15.2895703 43.5851563,14.7603711 L49.8351563,2.26037109 C50.0768555,1.77707031 50.049707,1.20001953 49.7664063,0.739570312" id="Fill-1" fill="#000000" mask="url(#mask-2)"></path>
            </g>
            <path d="M45.8330762,13.0208008 C45.8330762,12.1666016 45.1247754,11.4583008 44.2705762,11.4583008 C43.4164746,11.4583008 42.7080762,12.1666016 42.7080762,13.0208008 L42.7080762,18.75 L45.8330762,18.75 L45.8330762,13.0208008 Z" id="Fill-4" fill="#000000"></path>
            <path d="M14.583125,21.3541016 C14.583125,22.2166016 13.883125,22.9166016 13.020625,22.9166016 C12.158125,22.9166016 11.458125,22.2166016 11.458125,21.3541016 L11.458125,16.1458008 C11.458125,15.2833008 12.158125,14.5833008 13.020625,14.5833008 C13.883125,14.5833008 14.583125,15.2833008 14.583125,16.1458008 L14.583125,21.3541016 Z M9.37482422,21.3541016 C9.37482422,22.2166016 8.67482422,22.9166016 7.81232422,22.9166016 C6.94972656,22.9166016 6.24982422,22.2166016 6.24982422,21.3541016 L6.24982422,16.1458008 C6.24982422,15.2833008 6.94972656,14.5833008 7.81232422,14.5833008 C8.67482422,14.5833008 9.37482422,15.2833008 9.37482422,16.1458008 L9.37482422,21.3541016 Z M2.083125,25 L18.7498242,25 L18.7498242,12.5 L2.083125,12.5 L2.083125,25 Z" id="Fill-6" fill="#000000"></path>
            <path d="M28.1247754,21.3541016 C28.1247754,22.2083008 27.4164746,22.9166016 26.5622754,22.9166016 C25.7080762,22.9166016 24.9997754,22.2083008 24.9997754,21.3541016 L24.9997754,16.1458008 C24.9997754,15.2916016 25.7080762,14.5833008 26.5622754,14.5833008 C27.4164746,14.5833008 28.1247754,15.2916016 28.1247754,16.1458008 L28.1247754,21.3541016 Z M31.2080762,22.7916992 C30.6247754,22.5833008 30.2080762,21.9999023 30.2080762,21.3541016 L30.2080762,16.1458008 C30.2080762,15.2916016 30.9164746,14.5833008 31.7705762,14.5833008 C32.6247754,14.5833008 33.3330762,15.2916016 33.3330762,16.1458008 L33.3330762,19.125 C33.8122754,18.8749023 34.3330762,18.75 34.8955762,18.75 L37.4997754,18.75 L37.4997754,12.5 L20.8330762,12.5 L20.8330762,25 L28.6455762,25 C29.9372754,25 31.0205762,24.0416992 31.2080762,22.7916992 L31.2080762,22.7916992 Z" id="Fill-8" fill="#000000"></path>
            <path d="M14.583125,6.77080078 C14.583125,7.63330078 13.883125,8.33330078 13.020625,8.33330078 C12.158125,8.33330078 11.458125,7.63330078 11.458125,6.77080078 L11.458125,3.64580078 C11.458125,2.78330078 12.158125,2.08330078 13.020625,2.08330078 C13.883125,2.08330078 14.583125,2.78330078 14.583125,3.64580078 L14.583125,6.77080078 Z M9.37482422,6.77080078 C9.37482422,7.63330078 8.67482422,8.33330078 7.81232422,8.33330078 C6.94972656,8.33330078 6.24982422,7.63330078 6.24982422,6.77080078 L6.24982422,3.64580078 C6.24982422,2.78330078 6.94972656,2.08330078 7.81232422,2.08330078 C8.67482422,2.08330078 9.37482422,2.78330078 9.37482422,3.64580078 L9.37482422,6.77080078 Z M18.7498242,1.5625 C18.7498242,0.699902344 18.0498242,5.55111512e-15 17.1873242,5.55111512e-15 L2.083125,5.55111512e-15 L2.083125,10.4166016 L18.7498242,10.4166016 L18.7498242,1.5625 Z" id="Fill-10" fill="#000000"></path>
        </g>
    </g>
</svg>