<?xml version="1.0" encoding="UTF-8"?>
<svg width="50px" height="50px" viewBox="0 0 50 50" version="1.1" xmlns="http://www.w3.org/2000/svg" xmlns:xlink="http://www.w3.org/1999/xlink">
    <title>Icon/Port</title>
    <defs>
        <polygon id="path-1" points="0 0 50 0 50 50 0 50"></polygon>
    </defs>
    <g id="Icon/Port" stroke="none" stroke-width="1" fill="none" fill-rule="evenodd">
        <g id="Group-3">
            <mask id="mask-2" fill="white">
                <use xlink:href="#path-1"></use>
            </mask>
            <g id="Clip-2"></g>
            <path d="M29.0241373,8.04824219 C29.0241373,10.2671875 27.2188618,12.0724609 25.0000117,12.0724609 C24.9991328,12.0724609 24.9982539,12.0723633 24.9974726,12.0723633 C24.9982539,12.0723633 24.9991328,12.0722656 25.0000117,12.0722656 C22.7811615,12.0722656 20.9758861,10.2671875 20.9758861,8.04824219 C20.9758861,5.96796875 22.5625089,4.25136719 24.5891714,4.04492187 C24.7242301,4.03115234 24.8613396,4.02412109 25.0000117,4.02412109 C27.2188618,4.02412109 29.0241373,5.82929688 29.0241373,8.04824219 M49.8185942,22.4035156 L45.717906,16.5269531 C45.5178081,16.2400391 45.2053078,16.096582 44.8929051,16.096582 C44.5805024,16.096582 44.2680997,16.2400391 44.0679041,16.5269531 L39.9672159,22.4035156 C39.6152624,22.9080078 39.7935829,23.6069336 40.3446578,23.8803711 C40.7412403,24.0772461 41.2411432,24.2962891 41.814386,24.4901367 C41.4721004,28.5822266 39.6707312,32.2594727 36.9306891,34.9987305 C36.9311774,34.9982422 36.9316657,34.9976562 36.932154,34.997168 C34.553538,37.3756836 31.4680853,39.047168 28.0180815,39.6701172 L28.0180815,24.1449219 L31.0362489,24.1449219 C32.1474806,24.1448242 33.0482629,23.244043 33.0482629,22.1328125 C33.0482629,21.021582 32.147383,20.1207031 31.0361512,20.1207031 L28.0180815,20.1207031 L28.0180815,15.5091797 C30.9671082,14.3150391 33.0482629,11.4254883 33.0482629,8.04824219 C33.0482629,3.60332031 29.4449385,0 25.0000117,0 C20.5550848,0 16.9517605,3.60332031 16.9517605,8.04824219 C16.9517605,11.4254883 19.0328175,14.3149414 21.9818442,15.5091797 L21.9818442,20.1207031 L18.9637744,20.1207031 C17.8525427,20.1207031 16.9516628,21.021582 16.9516628,22.1328125 C16.9516628,23.244043 17.8525427,24.1449219 18.9637744,24.1449219 L21.9818442,24.1449219 L21.9818442,31.187207 L21.9818442,39.6700195 C18.5318404,39.0470703 15.4463877,37.3755859 13.0678694,34.997168 C13.06826,34.9976562 13.0687483,34.9981445 13.0691389,34.9985352 C10.3292921,32.2592773 8.52802054,28.5821289 8.18563734,24.4901367 C8.75897783,24.2962891 9.25878308,24.0772461 9.65536556,23.8803711 C10.2063427,23.6069336 10.3847609,22.9079102 10.0328074,22.4035156 L5.93211919,16.5269531 C5.73192366,16.2400391 5.41952096,16.096582 5.10711827,16.096582 C4.79471557,16.096582 4.48221522,16.2400391 4.28201969,16.5269531 L0.181429152,22.4035156 C-0.170524368,22.9080078 0.0077961444,23.6069336 0.558870981,23.8803711 C0.980258172,24.0894531 1.51785643,24.3237305 2.13660712,24.5260742 C2.82703759,35.4912109 11.2290001,44.3625 21.9818442,45.7777344 L21.9818442,46.9819336 C21.9818442,48.6487305 23.3331153,50 25.0000117,50 C26.6669081,50 28.0180815,48.6487305 28.0180815,46.9819336 L28.0180815,45.7777344 C33.1376184,45.1040039 37.7250259,42.740918 41.2005181,39.265332 C41.1991509,39.2666992 41.1977837,39.2678711 41.1965142,39.2692383 C45.0229833,35.4445312 47.5013064,30.2725586 47.8631232,24.5260742 C48.4820692,24.3238281 49.0197652,24.0895508 49.4411524,23.8803711 C49.9921295,23.6069336 50.1705477,22.9079102 49.8185942,22.4035156" id="Fill-1" fill="#000000" mask="url(#mask-2)"></path>
        </g>
    </g>
</svg>